<svg width="162" height="72" viewBox="0 0 162 72" fill="none" xmlns="http://www.w3.org/2000/svg">
<path d="M32.9765 19.16V53H23.5685V39.416H12.0965V53H2.68848V19.16H12.0965V31.88H23.5685V19.16H32.9765ZM50.8884 53.336C48.2004 53.336 45.7844 52.776 43.6404 51.656C41.5284 50.536 39.8644 48.936 38.6484 46.856C37.4324 44.776 36.8244 42.328 36.8244 39.512C36.8244 36.728 37.4324 34.296 38.6484 32.216C39.8964 30.136 41.5764 28.536 43.6884 27.416C45.8324 26.296 48.2484 25.736 50.9364 25.736C53.6244 25.736 56.0244 26.296 58.1364 27.416C60.2804 28.536 61.9604 30.136 63.1764 32.216C64.4244 34.296 65.0484 36.728 65.0484 39.512C65.0484 42.296 64.4244 44.744 63.1764 46.856C61.9604 48.936 60.2804 50.536 58.1364 51.656C55.9924 52.776 53.5764 53.336 50.8884 53.336ZM50.8884 45.176C52.2004 45.176 53.2884 44.696 54.1524 43.736C55.0484 42.744 55.4964 41.336 55.4964 39.512C55.4964 37.688 55.0484 36.296 54.1524 35.336C53.2884 34.376 52.2164 33.896 50.9364 33.896C49.6564 33.896 48.5844 34.376 47.7204 35.336C46.8564 36.296 46.4244 37.688 46.4244 39.512C46.4244 41.368 46.8404 42.776 47.6724 43.736C48.5044 44.696 49.5764 45.176 50.8884 45.176ZM78.284 17.48V53H68.876V17.48H78.284ZM93.0496 17.48V53H83.6416V17.48H93.0496ZM124.135 39.224C124.135 39.96 124.087 40.696 123.991 41.432H106.183C106.279 42.904 106.679 44.008 107.383 44.744C108.119 45.448 109.047 45.8 110.167 45.8C111.735 45.8 112.855 45.096 113.527 43.688H123.559C123.143 45.544 122.327 47.208 121.111 48.68C119.927 50.12 118.423 51.256 116.599 52.088C114.775 52.92 112.759 53.336 110.551 53.336C107.895 53.336 105.527 52.776 103.447 51.656C101.399 50.536 99.7833 48.936 98.5993 46.856C97.4473 44.776 96.8713 42.328 96.8713 39.512C96.8713 36.696 97.4473 34.264 98.5993 32.216C99.7513 30.136 101.351 28.536 103.399 27.416C105.479 26.296 107.863 25.736 110.551 25.736C113.207 25.736 115.559 26.28 117.607 27.368C119.655 28.456 121.255 30.024 122.407 32.072C123.559 34.088 124.135 36.472 124.135 39.224ZM114.535 36.872C114.535 35.72 114.151 34.824 113.383 34.184C112.615 33.512 111.655 33.176 110.503 33.176C109.351 33.176 108.407 33.496 107.671 34.136C106.935 34.744 106.455 35.656 106.231 36.872H114.535ZM137.393 30.824C138.449 29.288 139.729 28.072 141.233 27.176C142.737 26.28 144.353 25.832 146.081 25.832V35.864H143.441C141.393 35.864 139.873 36.264 138.881 37.064C137.889 37.864 137.393 39.256 137.393 41.24V53H127.985V26.072H137.393V30.824Z" fill="#FEFEFE"/>
<path d="M154.014 53.384C152.35 53.384 151.006 52.936 149.982 52.04C148.99 51.112 148.494 49.944 148.494 48.536C148.494 47.128 148.99 45.96 149.982 45.032C151.006 44.104 152.35 43.64 154.014 43.64C155.646 43.64 156.958 44.104 157.95 45.032C158.974 45.96 159.486 47.128 159.486 48.536C159.486 49.912 158.974 51.064 157.95 51.992C156.958 52.92 155.646 53.384 154.014 53.384Z" fill="url(#paint0_linear)"/>
<defs>
<linearGradient id="paint0_linear" x1="0.000285567" y1="1.14072e-05" x2="169.503" y2="40.9269" gradientUnits="userSpaceOnUse">
<stop offset="0.84375" stop-color="#FEA31F"/>
<stop offset="1" stop-color="#E3496B"/>
</linearGradient>
</defs>
</svg>
