<svg width="162" height="72" viewBox="0 0 162 72" fill="none" xmlns="http://www.w3.org/2000/svg">
<path d="M32.976 19.16V53H23.568V39.416H12.096V53H2.688V19.16H12.096V31.88H23.568V19.16H32.976ZM50.8879 53.336C48.1999 53.336 45.7839 52.776 43.6399 51.656C41.5279 50.536 39.8639 48.936 38.6479 46.856C37.4319 44.776 36.8239 42.328 36.8239 39.512C36.8239 36.728 37.4319 34.296 38.6479 32.216C39.8959 30.136 41.5759 28.536 43.6879 27.416C45.8319 26.296 48.2479 25.736 50.9359 25.736C53.6239 25.736 56.0239 26.296 58.1359 27.416C60.2799 28.536 61.9599 30.136 63.1759 32.216C64.4239 34.296 65.0479 36.728 65.0479 39.512C65.0479 42.296 64.4239 44.744 63.1759 46.856C61.9599 48.936 60.2799 50.536 58.1359 51.656C55.9919 52.776 53.5759 53.336 50.8879 53.336ZM50.8879 45.176C52.1999 45.176 53.2879 44.696 54.1519 43.736C55.0479 42.744 55.4959 41.336 55.4959 39.512C55.4959 37.688 55.0479 36.296 54.1519 35.336C53.2879 34.376 52.2159 33.896 50.9359 33.896C49.6559 33.896 48.5839 34.376 47.7199 35.336C46.8559 36.296 46.4239 37.688 46.4239 39.512C46.4239 41.368 46.8399 42.776 47.6719 43.736C48.5039 44.696 49.5759 45.176 50.8879 45.176ZM78.2835 17.48V53H68.8755V17.48H78.2835ZM93.0491 17.48V53H83.6411V17.48H93.0491ZM124.135 39.224C124.135 39.96 124.087 40.696 123.991 41.432H106.183C106.279 42.904 106.679 44.008 107.383 44.744C108.119 45.448 109.047 45.8 110.167 45.8C111.735 45.8 112.855 45.096 113.527 43.688H123.559C123.143 45.544 122.327 47.208 121.111 48.68C119.927 50.12 118.423 51.256 116.599 52.088C114.775 52.92 112.759 53.336 110.551 53.336C107.895 53.336 105.527 52.776 103.447 51.656C101.399 50.536 99.7828 48.936 98.5988 46.856C97.4468 44.776 96.8708 42.328 96.8708 39.512C96.8708 36.696 97.4468 34.264 98.5988 32.216C99.7508 30.136 101.351 28.536 103.399 27.416C105.479 26.296 107.863 25.736 110.551 25.736C113.207 25.736 115.559 26.28 117.607 27.368C119.655 28.456 121.255 30.024 122.407 32.072C123.559 34.088 124.135 36.472 124.135 39.224ZM114.535 36.872C114.535 35.72 114.151 34.824 113.383 34.184C112.615 33.512 111.655 33.176 110.503 33.176C109.351 33.176 108.407 33.496 107.671 34.136C106.935 34.744 106.455 35.656 106.231 36.872H114.535ZM137.393 30.824C138.449 29.288 139.729 28.072 141.233 27.176C142.737 26.28 144.353 25.832 146.081 25.832V35.864H143.441C141.393 35.864 139.873 36.264 138.881 37.064C137.889 37.864 137.393 39.256 137.393 41.24V53H127.985V26.072H137.393V30.824Z" fill="black"/>
<path d="M154.014 53.384C152.35 53.384 151.006 52.936 149.982 52.04C148.99 51.112 148.494 49.944 148.494 48.536C148.494 47.128 148.99 45.96 149.982 45.032C151.006 44.104 152.35 43.64 154.014 43.64C155.646 43.64 156.958 44.104 157.95 45.032C158.974 45.96 159.486 47.128 159.486 48.536C159.486 49.912 158.974 51.064 157.95 51.992C156.958 52.92 155.646 53.384 154.014 53.384Z" fill="url(#paint0_linear)"/>
<defs>
<linearGradient id="paint0_linear" x1="0" y1="0" x2="169.503" y2="40.927" gradientUnits="userSpaceOnUse">
<stop offset="0.84375" stop-color="#FEA31F"/>
<stop offset="1" stop-color="#E3496B"/>
</linearGradient>
</defs>
</svg>
