<svg width="28" height="21" viewBox="0 0 28 21" fill="none" xmlns="http://www.w3.org/2000/svg">
<path d="M26.6357 9.82394C26.6406 11.1683 26.2061 12.4944 25.3678 13.6943C24.3737 15.1322 22.8456 16.3416 20.9545 17.1871C19.0634 18.0326 16.884 18.4807 14.6605 18.4813C12.801 18.4849 10.9666 18.1708 9.30684 17.5647L1.27637 19.4999L3.95319 13.6943C3.11482 12.4944 2.68037 11.1683 2.68522 9.82394C2.68608 8.21647 3.30598 6.64092 4.47548 5.27376C5.64498 3.9066 7.31789 2.80183 9.30684 2.0832C10.9666 1.47711 12.801 1.16303 14.6605 1.16653H15.3649C18.3015 1.28365 21.0751 2.17972 23.1547 3.68315C25.2343 5.18658 26.4737 7.19173 26.6357 9.31468V9.82394Z" stroke="#343A40" stroke-width="2" stroke-linecap="round" stroke-linejoin="round"/>
</svg>
