<svg width="30" height="30" viewBox="0 0 30 30" fill="none" xmlns="http://www.w3.org/2000/svg">
<path d="M3.00002 18C4.65689 18 6.00004 16.6569 6.00004 15C6.00004 13.3432 4.65689 12 3.00002 12C1.34316 12 0 13.3432 0 15C0 16.6569 1.34316 18 3.00002 18Z" fill="black"/>
<path d="M13 18C14.6569 18 16 16.6569 16 15C16 13.3432 14.6569 12 13 12C11.3432 12 10 13.3432 10 15C10 16.6569 11.3432 18 13 18Z" fill="black"/>
<path d="M23 18C24.6569 18 26 16.6569 26 15C26 13.3432 24.6569 12 23 12C21.3432 12 20 13.3432 20 15C20 16.6569 21.3432 18 23 18Z" fill="black"/>
</svg>
