<svg width="777" height="58" viewBox="0 0 777 58" fill="none" xmlns="http://www.w3.org/2000/svg">
<rect x="0.5" y="0.5" width="776" height="57" rx="2.5" stroke="#CFD4DA"/>
<path d="M89.152 41.168C88.048 41.168 87.056 40.976 86.176 40.592C85.312 40.192 84.632 39.648 84.136 38.96C83.64 38.256 83.384 37.448 83.368 36.536H85.696C85.776 37.32 86.096 37.984 86.656 38.528C87.232 39.056 88.064 39.32 89.152 39.32C90.192 39.32 91.008 39.064 91.6 38.552C92.208 38.024 92.512 37.352 92.512 36.536C92.512 35.896 92.336 35.376 91.984 34.976C91.632 34.576 91.192 34.272 90.664 34.064C90.136 33.856 89.424 33.632 88.528 33.392C87.424 33.104 86.536 32.816 85.864 32.528C85.208 32.24 84.64 31.792 84.16 31.184C83.696 30.56 83.464 29.728 83.464 28.688C83.464 27.776 83.696 26.968 84.16 26.264C84.624 25.56 85.272 25.016 86.104 24.632C86.952 24.248 87.92 24.056 89.008 24.056C90.576 24.056 91.856 24.448 92.848 25.232C93.856 26.016 94.424 27.056 94.552 28.352H92.152C92.072 27.712 91.736 27.152 91.144 26.672C90.552 26.176 89.768 25.928 88.792 25.928C87.88 25.928 87.136 26.168 86.56 26.648C85.984 27.112 85.696 27.768 85.696 28.616C85.696 29.224 85.864 29.72 86.2 30.104C86.552 30.488 86.976 30.784 87.472 30.992C87.984 31.184 88.696 31.408 89.608 31.664C90.712 31.968 91.6 32.272 92.272 32.576C92.944 32.864 93.52 33.32 94 33.944C94.48 34.552 94.72 35.384 94.72 36.44C94.72 37.256 94.504 38.024 94.072 38.744C93.64 39.464 93 40.048 92.152 40.496C91.304 40.944 90.304 41.168 89.152 41.168ZM109.934 33.92C109.934 34.336 109.91 34.776 109.862 35.24H99.3499C99.4299 36.536 99.8699 37.552 100.67 38.288C101.486 39.008 102.47 39.368 103.622 39.368C104.566 39.368 105.35 39.152 105.974 38.72C106.614 38.272 107.062 37.68 107.318 36.944H109.67C109.318 38.208 108.614 39.24 107.558 40.04C106.502 40.824 105.19 41.216 103.622 41.216C102.374 41.216 101.254 40.936 100.262 40.376C99.2859 39.816 98.5179 39.024 97.9579 38C97.3979 36.96 97.1179 35.76 97.1179 34.4C97.1179 33.04 97.3899 31.848 97.9339 30.824C98.4779 29.8 99.2379 29.016 100.214 28.472C101.206 27.912 102.342 27.632 103.622 27.632C104.87 27.632 105.974 27.904 106.934 28.448C107.894 28.992 108.63 29.744 109.142 30.704C109.67 31.648 109.934 32.72 109.934 33.92ZM107.678 33.464C107.678 32.632 107.494 31.92 107.126 31.328C106.758 30.72 106.254 30.264 105.614 29.96C104.99 29.64 104.294 29.48 103.526 29.48C102.422 29.48 101.478 29.832 100.694 30.536C99.9259 31.24 99.4859 32.216 99.3739 33.464H107.678ZM112.001 34.376C112.001 33.032 112.273 31.856 112.817 30.848C113.361 29.824 114.105 29.032 115.049 28.472C116.009 27.912 117.073 27.632 118.241 27.632C119.393 27.632 120.393 27.88 121.241 28.376C122.089 28.872 122.721 29.496 123.137 30.248V27.848H125.345V41H123.137V38.552C122.705 39.32 122.057 39.96 121.193 40.472C120.345 40.968 119.353 41.216 118.217 41.216C117.049 41.216 115.993 40.928 115.049 40.352C114.105 39.776 113.361 38.968 112.817 37.928C112.273 36.888 112.001 35.704 112.001 34.376ZM123.137 34.4C123.137 33.408 122.937 32.544 122.537 31.808C122.137 31.072 121.593 30.512 120.905 30.128C120.233 29.728 119.489 29.528 118.673 29.528C117.857 29.528 117.113 29.72 116.441 30.104C115.769 30.488 115.233 31.048 114.833 31.784C114.433 32.52 114.233 33.384 114.233 34.376C114.233 35.384 114.433 36.264 114.833 37.016C115.233 37.752 115.769 38.32 116.441 38.72C117.113 39.104 117.857 39.296 118.673 39.296C119.489 39.296 120.233 39.104 120.905 38.72C121.593 38.32 122.137 37.752 122.537 37.016C122.937 36.264 123.137 35.392 123.137 34.4ZM131.22 29.984C131.604 29.232 132.148 28.648 132.852 28.232C133.572 27.816 134.444 27.608 135.468 27.608V29.864H134.892C132.444 29.864 131.22 31.192 131.22 33.848V41H129.036V27.848H131.22V29.984ZM137.173 34.4C137.173 33.04 137.445 31.856 137.989 30.848C138.533 29.824 139.285 29.032 140.245 28.472C141.221 27.912 142.333 27.632 143.581 27.632C145.197 27.632 146.525 28.024 147.565 28.808C148.621 29.592 149.317 30.68 149.653 32.072H147.301C147.077 31.272 146.637 30.64 145.981 30.176C145.341 29.712 144.541 29.48 143.581 29.48C142.333 29.48 141.325 29.912 140.557 30.776C139.789 31.624 139.405 32.832 139.405 34.4C139.405 35.984 139.789 37.208 140.557 38.072C141.325 38.936 142.333 39.368 143.581 39.368C144.541 39.368 145.341 39.144 145.981 38.696C146.621 38.248 147.061 37.608 147.301 36.776H149.653C149.301 38.12 148.597 39.2 147.541 40.016C146.485 40.816 145.165 41.216 143.581 41.216C142.333 41.216 141.221 40.936 140.245 40.376C139.285 39.816 138.533 39.024 137.989 38C137.445 36.976 137.173 35.776 137.173 34.4ZM159.095 27.608C160.087 27.608 160.983 27.824 161.783 28.256C162.583 28.672 163.207 29.304 163.655 30.152C164.119 31 164.351 32.032 164.351 33.248V41H162.191V33.56C162.191 32.248 161.863 31.248 161.207 30.56C160.551 29.856 159.655 29.504 158.519 29.504C157.367 29.504 156.447 29.864 155.759 30.584C155.087 31.304 154.751 32.352 154.751 33.728V41H152.567V23.24H154.751V29.72C155.183 29.048 155.775 28.528 156.527 28.16C157.295 27.792 158.151 27.608 159.095 27.608ZM176.501 26.048V31.64H182.597V33.44H176.501V39.2H183.317V41H174.317V24.248H183.317V26.048H176.501ZM191.517 38.984L195.597 27.848H197.925L192.765 41H190.221L185.061 27.848H187.413L191.517 38.984ZM212.075 33.92C212.075 34.336 212.051 34.776 212.003 35.24H201.491C201.571 36.536 202.011 37.552 202.811 38.288C203.627 39.008 204.611 39.368 205.763 39.368C206.707 39.368 207.491 39.152 208.115 38.72C208.755 38.272 209.203 37.68 209.459 36.944H211.811C211.459 38.208 210.755 39.24 209.699 40.04C208.643 40.824 207.331 41.216 205.763 41.216C204.515 41.216 203.395 40.936 202.403 40.376C201.427 39.816 200.659 39.024 200.099 38C199.539 36.96 199.259 35.76 199.259 34.4C199.259 33.04 199.531 31.848 200.075 30.824C200.619 29.8 201.379 29.016 202.355 28.472C203.347 27.912 204.483 27.632 205.763 27.632C207.011 27.632 208.115 27.904 209.075 28.448C210.035 28.992 210.771 29.744 211.283 30.704C211.811 31.648 212.075 32.72 212.075 33.92ZM209.819 33.464C209.819 32.632 209.635 31.92 209.267 31.328C208.899 30.72 208.395 30.264 207.755 29.96C207.131 29.64 206.435 29.48 205.667 29.48C204.563 29.48 203.619 29.832 202.835 30.536C202.067 31.24 201.627 32.216 201.515 33.464H209.819ZM221.365 27.608C222.965 27.608 224.261 28.096 225.253 29.072C226.245 30.032 226.741 31.424 226.741 33.248V41H224.581V33.56C224.581 32.248 224.253 31.248 223.597 30.56C222.941 29.856 222.045 29.504 220.909 29.504C219.757 29.504 218.837 29.864 218.149 30.584C217.477 31.304 217.141 32.352 217.141 33.728V41H214.957V27.848H217.141V29.72C217.573 29.048 218.157 28.528 218.893 28.16C219.645 27.792 220.469 27.608 221.365 27.608ZM232.973 29.648V37.4C232.973 38.04 233.109 38.496 233.381 38.768C233.653 39.024 234.125 39.152 234.797 39.152H236.405V41H234.437C233.221 41 232.309 40.72 231.701 40.16C231.093 39.6 230.789 38.68 230.789 37.4V29.648H229.085V27.848H230.789V24.536H232.973V27.848H236.405V29.648H232.973ZM243.707 41.216C242.699 41.216 241.795 41.048 240.995 40.712C240.195 40.36 239.563 39.88 239.099 39.272C238.635 38.648 238.379 37.936 238.331 37.136H240.587C240.651 37.792 240.955 38.328 241.499 38.744C242.059 39.16 242.787 39.368 243.683 39.368C244.515 39.368 245.171 39.184 245.651 38.816C246.131 38.448 246.371 37.984 246.371 37.424C246.371 36.848 246.115 36.424 245.603 36.152C245.091 35.864 244.299 35.584 243.227 35.312C242.251 35.056 241.451 34.8 240.827 34.544C240.219 34.272 239.691 33.88 239.243 33.368C238.811 32.84 238.595 32.152 238.595 31.304C238.595 30.632 238.795 30.016 239.195 29.456C239.595 28.896 240.163 28.456 240.899 28.136C241.635 27.8 242.475 27.632 243.419 27.632C244.875 27.632 246.051 28 246.947 28.736C247.843 29.472 248.323 30.48 248.387 31.76H246.203C246.155 31.072 245.875 30.52 245.363 30.104C244.867 29.688 244.195 29.48 243.347 29.48C242.563 29.48 241.939 29.648 241.475 29.984C241.011 30.32 240.779 30.76 240.779 31.304C240.779 31.736 240.915 32.096 241.187 32.384C241.475 32.656 241.827 32.88 242.243 33.056C242.675 33.216 243.267 33.4 244.019 33.608C244.963 33.864 245.731 34.12 246.323 34.376C246.915 34.616 247.419 34.984 247.835 35.48C248.267 35.976 248.491 36.624 248.507 37.424C248.507 38.144 248.307 38.792 247.907 39.368C247.507 39.944 246.939 40.4 246.203 40.736C245.483 41.056 244.651 41.216 243.707 41.216Z" fill="#868E96"/>
<path d="M33.4583 40.4583C42.479 40.4583 49.7917 34.3396 49.7917 26.7917C49.7917 19.2438 42.479 13.125 33.4583 13.125C24.4377 13.125 17.125 19.2438 17.125 26.7917C17.125 34.3396 24.4377 40.4583 33.4583 40.4583Z" stroke="#868E96" stroke-linecap="round" stroke-linejoin="round"/>
<path d="M53.8749 43.875L44.9937 36.4437" stroke="#868E96" stroke-linecap="round" stroke-linejoin="round"/>
</svg>
